<svg xmlns="http://www.w3.org/2000/svg" xmlns:dc="http://purl.org/dc/elements/1.1/" xmlns:ns2="http://creativecommons.org/ns#" xmlns:rdf="http://www.w3.org/1999/02/22-rdf-syntax-ns#" xmlns:xlink="http://www.w3.org/1999/xlink" width="640.0" height="284.0" viewBox="0.0 0.0 640.0 284.0">
<g id="graph0" class="graph" transform="scale(2 2) rotate(0) translate(4 138)">
<title>G</title>
<polygon fill="white" stroke="none" points="-4,4 -4,-138 316,-138 316,4 -4,4" />

<g id="node1" class="node">
<title>node1</title>
<text text-anchor="start" x="50" y="-80.4" font-family="Arial" font-size="12.00" fill="#444443">seniority@106.90</text>
</g>

<g id="node2" class="node">
<title>node2</title>
<text text-anchor="start" x="157.5" y="-80.4" font-family="Arial" font-size="12.00" fill="#444443">education@17.86</text>
</g>


<g id="node4" class="node">
<title>leaf5</title>
<polygon fill="none" stroke="#444443" stroke-width="0" points="68,-60 0,-60 0,0 68,0 68,-60" />
<svg width="60px" height="52px" viewBox="0 0 79.629375 70.272529" version="1.1" preserveAspectRatio="xMinYMin meet" x="4" y="-56">
 <metadata>
  <rdf:RDF>
   <ns2:Work>
    <dc:type rdf:resource="http://purl.org/dc/dcmitype/StillImage" />
    <dc:date>2024-10-17T16:36:27.637283</dc:date>
    <dc:format>image/svg+xml</dc:format>
    <dc:creator>
     <ns2:Agent>
      <dc:title>Matplotlib v3.7.0, https://matplotlib.org/</dc:title>
     </ns2:Agent>
    </dc:creator>
   </ns2:Work>
  </rdf:RDF>
 </metadata>
 <defs>
  <style type="text/css">*{stroke-linejoin: round; stroke-linecap: butt}</style>
 </defs>
 <g id="figure_1">
  <g id="patch_1">
   <path d="M 0 70.272529  L 79.629375 70.272529  L 79.629375 0  L 0 0  L 0 70.272529  z " style="fill: none" />
  </g>
  <g id="axes_1">
   <g id="patch_2">
    <path d="M 20.34625 44.855904  L 62.19625 44.855904  L 62.19625 1.367904  L 20.34625 1.367904  z " style="fill: #ffffff" />
   </g>
   <g id="PathCollection_1">
    <defs>
     <path id="m7cc1619f1b" d="M 0 1.118034  C 0.296506 1.118034 0.580908 1.000231 0.790569 0.790569  C 1.000231 0.580908 1.118034 0.296506 1.118034 0  C 1.118034 -0.296506 1.000231 -0.580908 0.790569 -0.790569  C 0.580908 -1.000231 0.296506 -1.118034 0 -1.118034  C -0.296506 -1.118034 -0.580908 -1.000231 -0.790569 -0.790569  C -1.000231 -0.580908 -1.118034 -0.296506 -1.118034 0  C -1.118034 0.296506 -1.000231 0.580908 -0.790569 0.790569  C -0.580908 1.000231 -0.296506 1.118034 0 1.118034  z " style="stroke: #4575b4; stroke-opacity: 0.7; stroke-width: 0.3" />
    </defs>
    <g clip-path="url(#p147823b19b)">
     <use xlink:href="#m7cc1619f1b" x="41.070736" y="36.372639" style="fill: #4575b4; fill-opacity: 0.7; stroke: #4575b4; stroke-opacity: 0.7; stroke-width: 0.3" />
     <use xlink:href="#m7cc1619f1b" x="42.006477" y="37.79103" style="fill: #4575b4; fill-opacity: 0.7; stroke: #4575b4; stroke-opacity: 0.7; stroke-width: 0.3" />
     <use xlink:href="#m7cc1619f1b" x="47.385707" y="39.80777" style="fill: #4575b4; fill-opacity: 0.7; stroke: #4575b4; stroke-opacity: 0.7; stroke-width: 0.3" />
     <use xlink:href="#m7cc1619f1b" x="40.172919" y="39.380037" style="fill: #4575b4; fill-opacity: 0.7; stroke: #4575b4; stroke-opacity: 0.7; stroke-width: 0.3" />
     <use xlink:href="#m7cc1619f1b" x="39.137629" y="44.636001" style="fill: #4575b4; fill-opacity: 0.7; stroke: #4575b4; stroke-opacity: 0.7; stroke-width: 0.3" />
     <use xlink:href="#m7cc1619f1b" x="36.160569" y="43.190433" style="fill: #4575b4; fill-opacity: 0.7; stroke: #4575b4; stroke-opacity: 0.7; stroke-width: 0.3" />
     <use xlink:href="#m7cc1619f1b" x="39.467814" y="42.550419" style="fill: #4575b4; fill-opacity: 0.7; stroke: #4575b4; stroke-opacity: 0.7; stroke-width: 0.3" />
     <use xlink:href="#m7cc1619f1b" x="44.677322" y="45.126974" style="fill: #4575b4; fill-opacity: 0.7; stroke: #4575b4; stroke-opacity: 0.7; stroke-width: 0.3" />
    </g>
   </g>
   <g id="matplotlib.axis_1" />
   <g id="matplotlib.axis_2">
    <g id="ytick_1">
     <g id="line2d_1">
      <defs>
       <path id="m116044e323" d="M 0 0  L -3.5 0  " style="stroke: #000000; stroke-width: 0.3" />
      </defs>
      <g>
       <use xlink:href="#m116044e323" x="20.34625" y="28.512896" style="stroke: #000000; stroke-width: 0.3" />
      </g>
     </g>
     <g id="text_1">
      
      <g style="fill: #444443" transform="translate(4.44875 31.376021) scale(0.08 -0.08)">
       <defs>
        <path id="ArialMT-35" d="M 266 1200  L 856 1250  Q 922 819 1161 601  Q 1400 384 1738 384  Q 2144 384 2425 690  Q 2706 997 2706 1503  Q 2706 1984 2436 2262  Q 2166 2541 1728 2541  Q 1456 2541 1237 2417  Q 1019 2294 894 2097  L 366 2166  L 809 4519  L 3088 4519  L 3088 3981  L 1259 3981  L 1013 2750  Q 1425 3038 1878 3038  Q 2478 3038 2890 2622  Q 3303 2206 3303 1553  Q 3303 931 2941 478  Q 2500 -78 1738 -78  Q 1113 -78 717 272  Q 322 622 266 1200  z " transform="scale(0.015625)" />
        <path id="ArialMT-30" d="M 266 2259  Q 266 3072 433 3567  Q 600 4063 929 4331  Q 1259 4600 1759 4600  Q 2128 4600 2406 4451  Q 2684 4303 2865 4023  Q 3047 3744 3150 3342  Q 3253 2941 3253 2259  Q 3253 1453 3087 958  Q 2922 463 2592 192  Q 2263 -78 1759 -78  Q 1097 -78 719 397  Q 266 969 266 2259  z M 844 2259  Q 844 1131 1108 757  Q 1372 384 1759 384  Q 2147 384 2411 759  Q 2675 1134 2675 2259  Q 2675 3391 2411 3762  Q 2147 4134 1753 4134  Q 1366 4134 1134 3806  Q 844 3388 844 2259  z " transform="scale(0.015625)" />
       </defs>
       <use xlink:href="#ArialMT-35" />
       <use xlink:href="#ArialMT-30" x="55.615234" />
      </g>
     </g>
    </g>
    <g id="ytick_2">
     <g id="line2d_2">
      <g>
       <use xlink:href="#m116044e323" x="20.34625" y="2.863125" style="stroke: #000000; stroke-width: 0.3" />
      </g>
     </g>
     <g id="text_2">
      
      <g style="fill: #444443" transform="translate(-0 5.72625) scale(0.08 -0.08)">
       <defs>
        <path id="ArialMT-31" d="M 2384 0  L 1822 0  L 1822 3584  Q 1619 3391 1289 3197  Q 959 3003 697 2906  L 697 3450  Q 1169 3672 1522 3987  Q 1875 4303 2022 4600  L 2384 4600  L 2384 0  z " transform="scale(0.015625)" />
       </defs>
       <use xlink:href="#ArialMT-31" />
       <use xlink:href="#ArialMT-30" x="55.615234" />
       <use xlink:href="#ArialMT-30" x="111.230469" />
      </g>
     </g>
    </g>
   </g>
   <g id="line2d_3">
    <path d="M 20.34625 41.106913  L 80.629375 41.106913  " clip-path="url(#p147823b19b)" style="fill: none; stroke-dasharray: 3.7,1.6; stroke-dashoffset: 0; stroke: #444443" />
   </g>
   <g id="patch_3">
    <path d="M 20.34625 44.855904  L 20.34625 1.367904  " style="fill: none; stroke: #444443; stroke-width: 0.3; stroke-linejoin: miter; stroke-linecap: square" />
   </g>
   <g id="text_3">
    
    <g style="fill: #444443" transform="translate(3.913125 55.195279) scale(0.12 -0.12)">
     <defs>
      <path id="ArialMT-69" d="M 425 3934  L 425 4581  L 988 4581  L 988 3934  L 425 3934  z M 425 0  L 425 3319  L 988 3319  L 988 0  L 425 0  z " transform="scale(0.015625)" />
      <path id="ArialMT-6e" d="M 422 0  L 422 3319  L 928 3319  L 928 2847  Q 1294 3394 1984 3394  Q 2284 3394 2536 3286  Q 2788 3178 2913 3003  Q 3038 2828 3088 2588  Q 3119 2431 3119 2041  L 3119 0  L 2556 0  L 2556 2019  Q 2556 2363 2490 2533  Q 2425 2703 2258 2804  Q 2091 2906 1866 2906  Q 1506 2906 1245 2678  Q 984 2450 984 1813  L 984 0  L 422 0  z " transform="scale(0.015625)" />
      <path id="ArialMT-63" d="M 2588 1216  L 3141 1144  Q 3050 572 2676 248  Q 2303 -75 1759 -75  Q 1078 -75 664 370  Q 250 816 250 1647  Q 250 2184 428 2587  Q 606 2991 970 3192  Q 1334 3394 1763 3394  Q 2303 3394 2647 3120  Q 2991 2847 3088 2344  L 2541 2259  Q 2463 2594 2264 2762  Q 2066 2931 1784 2931  Q 1359 2931 1093 2626  Q 828 2322 828 1663  Q 828 994 1084 691  Q 1341 388 1753 388  Q 2084 388 2306 591  Q 2528 794 2588 1216  z " transform="scale(0.015625)" />
      <path id="ArialMT-6f" d="M 213 1659  Q 213 2581 725 3025  Q 1153 3394 1769 3394  Q 2453 3394 2887 2945  Q 3322 2497 3322 1706  Q 3322 1066 3130 698  Q 2938 331 2570 128  Q 2203 -75 1769 -75  Q 1072 -75 642 372  Q 213 819 213 1659  z M 791 1659  Q 791 1022 1069 705  Q 1347 388 1769 388  Q 2188 388 2466 706  Q 2744 1025 2744 1678  Q 2744 2294 2464 2611  Q 2184 2928 1769 2928  Q 1347 2928 1069 2612  Q 791 2297 791 1659  z " transform="scale(0.015625)" />
      <path id="ArialMT-6d" d="M 422 0  L 422 3319  L 925 3319  L 925 2853  Q 1081 3097 1340 3245  Q 1600 3394 1931 3394  Q 2300 3394 2536 3241  Q 2772 3088 2869 2813  Q 3263 3394 3894 3394  Q 4388 3394 4653 3120  Q 4919 2847 4919 2278  L 4919 0  L 4359 0  L 4359 2091  Q 4359 2428 4304 2576  Q 4250 2725 4106 2815  Q 3963 2906 3769 2906  Q 3419 2906 3187 2673  Q 2956 2441 2956 1928  L 2956 0  L 2394 0  L 2394 2156  Q 2394 2531 2256 2718  Q 2119 2906 1806 2906  Q 1569 2906 1367 2781  Q 1166 2656 1075 2415  Q 984 2175 984 1722  L 984 0  L 422 0  z " transform="scale(0.015625)" />
      <path id="ArialMT-65" d="M 2694 1069  L 3275 997  Q 3138 488 2766 206  Q 2394 -75 1816 -75  Q 1088 -75 661 373  Q 234 822 234 1631  Q 234 2469 665 2931  Q 1097 3394 1784 3394  Q 2450 3394 2872 2941  Q 3294 2488 3294 1666  Q 3294 1616 3291 1516  L 816 1516  Q 847 969 1125 678  Q 1403 388 1819 388  Q 2128 388 2347 550  Q 2566 713 2694 1069  z M 847 1978  L 2700 1978  Q 2663 2397 2488 2606  Q 2219 2931 1791 2931  Q 1403 2931 1139 2672  Q 875 2413 847 1978  z " transform="scale(0.015625)" />
      <path id="ArialMT-3d" d="M 3381 2694  L 356 2694  L 356 3219  L 3381 3219  L 3381 2694  z M 3381 1303  L 356 1303  L 356 1828  L 3381 1828  L 3381 1303  z " transform="scale(0.015625)" />
      <path id="ArialMT-32" d="M 3222 541  L 3222 0  L 194 0  Q 188 203 259 391  Q 375 700 629 1000  Q 884 1300 1366 1694  Q 2113 2306 2375 2664  Q 2638 3022 2638 3341  Q 2638 3675 2398 3904  Q 2159 4134 1775 4134  Q 1369 4134 1125 3890  Q 881 3647 878 3216  L 300 3275  Q 359 3922 746 4261  Q 1134 4600 1788 4600  Q 2447 4600 2831 4234  Q 3216 3869 3216 3328  Q 3216 3053 3103 2787  Q 2991 2522 2730 2228  Q 2469 1934 1863 1422  Q 1356 997 1212 845  Q 1069 694 975 541  L 3222 541  z " transform="scale(0.015625)" />
      <path id="ArialMT-2e" d="M 581 0  L 581 641  L 1222 641  L 1222 0  L 581 0  z " transform="scale(0.015625)" />
      <path id="ArialMT-34" d="M 2069 0  L 2069 1097  L 81 1097  L 81 1613  L 2172 4581  L 2631 4581  L 2631 1613  L 3250 1613  L 3250 1097  L 2631 1097  L 2631 0  L 2069 0  z M 2069 1613  L 2069 3678  L 634 1613  L 2069 1613  z " transform="scale(0.015625)" />
     </defs>
     <use xlink:href="#ArialMT-69" />
     <use xlink:href="#ArialMT-6e" x="22.216797" />
     <use xlink:href="#ArialMT-63" x="77.832031" />
     <use xlink:href="#ArialMT-6f" x="127.832031" />
     <use xlink:href="#ArialMT-6d" x="183.447266" />
     <use xlink:href="#ArialMT-65" x="266.748047" />
     <use xlink:href="#ArialMT-3d" x="322.363281" />
     <use xlink:href="#ArialMT-32" x="380.761719" />
     <use xlink:href="#ArialMT-35" x="436.376953" />
     <use xlink:href="#ArialMT-2e" x="491.992188" />
     <use xlink:href="#ArialMT-34" x="519.775391" />
     <use xlink:href="#ArialMT-35" x="575.390625" />
    </g>
    
    <g style="fill: #444443" transform="translate(31.59375 67.887529) scale(0.12 -0.12)">
     <defs>
      <path id="ArialMT-38" d="M 1131 2484  Q 781 2613 612 2850  Q 444 3088 444 3419  Q 444 3919 803 4259  Q 1163 4600 1759 4600  Q 2359 4600 2725 4251  Q 3091 3903 3091 3403  Q 3091 3084 2923 2848  Q 2756 2613 2416 2484  Q 2838 2347 3058 2040  Q 3278 1734 3278 1309  Q 3278 722 2862 322  Q 2447 -78 1769 -78  Q 1091 -78 675 323  Q 259 725 259 1325  Q 259 1772 486 2073  Q 713 2375 1131 2484  z M 1019 3438  Q 1019 3113 1228 2906  Q 1438 2700 1772 2700  Q 2097 2700 2305 2904  Q 2513 3109 2513 3406  Q 2513 3716 2298 3927  Q 2084 4138 1766 4138  Q 1444 4138 1231 3931  Q 1019 3725 1019 3438  z M 838 1322  Q 838 1081 952 856  Q 1066 631 1291 507  Q 1516 384 1775 384  Q 2178 384 2440 643  Q 2703 903 2703 1303  Q 2703 1709 2433 1975  Q 2163 2241 1756 2241  Q 1359 2241 1098 1978  Q 838 1716 838 1322  z " transform="scale(0.015625)" />
     </defs>
     <use xlink:href="#ArialMT-6e" />
     <use xlink:href="#ArialMT-3d" x="55.615234" />
     <use xlink:href="#ArialMT-38" x="114.013672" />
    </g>
   </g>
  </g>
 </g>
 <defs>
  <clipPath id="p147823b19b">
   <rect x="20.34625" y="1.367904" width="41.85" height="43.488" />
  </clipPath>
 </defs>
</svg></g>

<g id="edge1" class="edge">
<title>node1-&gt;leaf5</title>
<path fill="none" stroke="#444443" stroke-width="0.3" d="M90.73,-77.37C85.88,-73.41 78.73,-67.57 71.13,-61.36" />
<polygon fill="#444443" stroke="#444443" stroke-width="0.3" points="72.19,-60.41 68.21,-58.96 70.42,-62.58 72.19,-60.41" />
</g>

<g id="node5" class="node">
<title>leaf6</title>
<polygon fill="none" stroke="#444443" stroke-width="0" points="150,-60 82,-60 82,0 150,0 150,-60" />
<svg width="60px" height="52px" viewBox="0 0 79.629375 70.272529" version="1.1" preserveAspectRatio="xMinYMin meet" x="86" y="-56">
 <metadata>
  <rdf:RDF>
   <ns2:Work>
    <dc:type rdf:resource="http://purl.org/dc/dcmitype/StillImage" />
    <dc:date>2024-10-17T16:36:27.694839</dc:date>
    <dc:format>image/svg+xml</dc:format>
    <dc:creator>
     <ns2:Agent>
      <dc:title>Matplotlib v3.7.0, https://matplotlib.org/</dc:title>
     </ns2:Agent>
    </dc:creator>
   </ns2:Work>
  </rdf:RDF>
 </metadata>
 <defs>
  <style type="text/css">*{stroke-linejoin: round; stroke-linecap: butt}</style>
 </defs>
 <g id="figure_1">
  <g id="patch_1">
   <path d="M 0 70.272529  L 79.629375 70.272529  L 79.629375 0  L 0 0  L 0 70.272529  z " style="fill: none" />
  </g>
  <g id="axes_1">
   <g id="patch_2">
    <path d="M 20.34625 44.855904  L 62.19625 44.855904  L 62.19625 1.367904  L 20.34625 1.367904  z " style="fill: #ffffff" />
   </g>
   <g id="PathCollection_1">
    <defs>
     <path id="mca20661e64" d="M 0 1.118034  C 0.296506 1.118034 0.580908 1.000231 0.790569 0.790569  C 1.000231 0.580908 1.118034 0.296506 1.118034 0  C 1.118034 -0.296506 1.000231 -0.580908 0.790569 -0.790569  C 0.580908 -1.000231 0.296506 -1.118034 0 -1.118034  C -0.296506 -1.118034 -0.580908 -1.000231 -0.790569 -0.790569  C -1.000231 -0.580908 -1.118034 -0.296506 -1.118034 0  C -1.118034 0.296506 -1.000231 0.580908 -0.790569 0.790569  C -0.580908 1.000231 -0.296506 1.118034 0 1.118034  z " style="stroke: #4575b4; stroke-opacity: 0.7; stroke-width: 0.3" />
    </defs>
    <g clip-path="url(#p99dc2fdfd1)">
     <use xlink:href="#mca20661e64" x="42.699085" y="30.741589" style="fill: #4575b4; fill-opacity: 0.7; stroke: #4575b4; stroke-opacity: 0.7; stroke-width: 0.3" />
     <use xlink:href="#mca20661e64" x="43.515892" y="32.856945" style="fill: #4575b4; fill-opacity: 0.7; stroke: #4575b4; stroke-opacity: 0.7; stroke-width: 0.3" />
     <use xlink:href="#mca20661e64" x="38.400098" y="26.700942" style="fill: #4575b4; fill-opacity: 0.7; stroke: #4575b4; stroke-opacity: 0.7; stroke-width: 0.3" />
    </g>
   </g>
   <g id="matplotlib.axis_1" />
   <g id="matplotlib.axis_2">
    <g id="ytick_1">
     <g id="line2d_1">
      <defs>
       <path id="m1812b6cb16" d="M 0 0  L -3.5 0  " style="stroke: #000000; stroke-width: 0.3" />
      </defs>
      <g>
       <use xlink:href="#m1812b6cb16" x="20.34625" y="28.512896" style="stroke: #000000; stroke-width: 0.3" />
      </g>
     </g>
     <g id="text_1">
      
      <g style="fill: #444443" transform="translate(4.44875 31.376021) scale(0.08 -0.08)">
       <defs>
        <path id="ArialMT-35" d="M 266 1200  L 856 1250  Q 922 819 1161 601  Q 1400 384 1738 384  Q 2144 384 2425 690  Q 2706 997 2706 1503  Q 2706 1984 2436 2262  Q 2166 2541 1728 2541  Q 1456 2541 1237 2417  Q 1019 2294 894 2097  L 366 2166  L 809 4519  L 3088 4519  L 3088 3981  L 1259 3981  L 1013 2750  Q 1425 3038 1878 3038  Q 2478 3038 2890 2622  Q 3303 2206 3303 1553  Q 3303 931 2941 478  Q 2500 -78 1738 -78  Q 1113 -78 717 272  Q 322 622 266 1200  z " transform="scale(0.015625)" />
        <path id="ArialMT-30" d="M 266 2259  Q 266 3072 433 3567  Q 600 4063 929 4331  Q 1259 4600 1759 4600  Q 2128 4600 2406 4451  Q 2684 4303 2865 4023  Q 3047 3744 3150 3342  Q 3253 2941 3253 2259  Q 3253 1453 3087 958  Q 2922 463 2592 192  Q 2263 -78 1759 -78  Q 1097 -78 719 397  Q 266 969 266 2259  z M 844 2259  Q 844 1131 1108 757  Q 1372 384 1759 384  Q 2147 384 2411 759  Q 2675 1134 2675 2259  Q 2675 3391 2411 3762  Q 2147 4134 1753 4134  Q 1366 4134 1134 3806  Q 844 3388 844 2259  z " transform="scale(0.015625)" />
       </defs>
       <use xlink:href="#ArialMT-35" />
       <use xlink:href="#ArialMT-30" x="55.615234" />
      </g>
     </g>
    </g>
    <g id="ytick_2">
     <g id="line2d_2">
      <g>
       <use xlink:href="#m1812b6cb16" x="20.34625" y="2.863125" style="stroke: #000000; stroke-width: 0.3" />
      </g>
     </g>
     <g id="text_2">
      
      <g style="fill: #444443" transform="translate(-0 5.72625) scale(0.08 -0.08)">
       <defs>
        <path id="ArialMT-31" d="M 2384 0  L 1822 0  L 1822 3584  Q 1619 3391 1289 3197  Q 959 3003 697 2906  L 697 3450  Q 1169 3672 1522 3987  Q 1875 4303 2022 4600  L 2384 4600  L 2384 0  z " transform="scale(0.015625)" />
       </defs>
       <use xlink:href="#ArialMT-31" />
       <use xlink:href="#ArialMT-30" x="55.615234" />
       <use xlink:href="#ArialMT-30" x="111.230469" />
      </g>
     </g>
    </g>
   </g>
   <g id="line2d_3">
    <path d="M 20.34625 30.099825  L 80.629375 30.099825  " clip-path="url(#p99dc2fdfd1)" style="fill: none; stroke-dasharray: 3.7,1.6; stroke-dashoffset: 0; stroke: #444443" />
   </g>
   <g id="patch_3">
    <path d="M 20.34625 44.855904  L 20.34625 1.367904  " style="fill: none; stroke: #444443; stroke-width: 0.3; stroke-linejoin: miter; stroke-linecap: square" />
   </g>
   <g id="text_3">
    
    <g style="fill: #444443" transform="translate(3.913125 55.195279) scale(0.12 -0.12)">
     <defs>
      <path id="ArialMT-69" d="M 425 3934  L 425 4581  L 988 4581  L 988 3934  L 425 3934  z M 425 0  L 425 3319  L 988 3319  L 988 0  L 425 0  z " transform="scale(0.015625)" />
      <path id="ArialMT-6e" d="M 422 0  L 422 3319  L 928 3319  L 928 2847  Q 1294 3394 1984 3394  Q 2284 3394 2536 3286  Q 2788 3178 2913 3003  Q 3038 2828 3088 2588  Q 3119 2431 3119 2041  L 3119 0  L 2556 0  L 2556 2019  Q 2556 2363 2490 2533  Q 2425 2703 2258 2804  Q 2091 2906 1866 2906  Q 1506 2906 1245 2678  Q 984 2450 984 1813  L 984 0  L 422 0  z " transform="scale(0.015625)" />
      <path id="ArialMT-63" d="M 2588 1216  L 3141 1144  Q 3050 572 2676 248  Q 2303 -75 1759 -75  Q 1078 -75 664 370  Q 250 816 250 1647  Q 250 2184 428 2587  Q 606 2991 970 3192  Q 1334 3394 1763 3394  Q 2303 3394 2647 3120  Q 2991 2847 3088 2344  L 2541 2259  Q 2463 2594 2264 2762  Q 2066 2931 1784 2931  Q 1359 2931 1093 2626  Q 828 2322 828 1663  Q 828 994 1084 691  Q 1341 388 1753 388  Q 2084 388 2306 591  Q 2528 794 2588 1216  z " transform="scale(0.015625)" />
      <path id="ArialMT-6f" d="M 213 1659  Q 213 2581 725 3025  Q 1153 3394 1769 3394  Q 2453 3394 2887 2945  Q 3322 2497 3322 1706  Q 3322 1066 3130 698  Q 2938 331 2570 128  Q 2203 -75 1769 -75  Q 1072 -75 642 372  Q 213 819 213 1659  z M 791 1659  Q 791 1022 1069 705  Q 1347 388 1769 388  Q 2188 388 2466 706  Q 2744 1025 2744 1678  Q 2744 2294 2464 2611  Q 2184 2928 1769 2928  Q 1347 2928 1069 2612  Q 791 2297 791 1659  z " transform="scale(0.015625)" />
      <path id="ArialMT-6d" d="M 422 0  L 422 3319  L 925 3319  L 925 2853  Q 1081 3097 1340 3245  Q 1600 3394 1931 3394  Q 2300 3394 2536 3241  Q 2772 3088 2869 2813  Q 3263 3394 3894 3394  Q 4388 3394 4653 3120  Q 4919 2847 4919 2278  L 4919 0  L 4359 0  L 4359 2091  Q 4359 2428 4304 2576  Q 4250 2725 4106 2815  Q 3963 2906 3769 2906  Q 3419 2906 3187 2673  Q 2956 2441 2956 1928  L 2956 0  L 2394 0  L 2394 2156  Q 2394 2531 2256 2718  Q 2119 2906 1806 2906  Q 1569 2906 1367 2781  Q 1166 2656 1075 2415  Q 984 2175 984 1722  L 984 0  L 422 0  z " transform="scale(0.015625)" />
      <path id="ArialMT-65" d="M 2694 1069  L 3275 997  Q 3138 488 2766 206  Q 2394 -75 1816 -75  Q 1088 -75 661 373  Q 234 822 234 1631  Q 234 2469 665 2931  Q 1097 3394 1784 3394  Q 2450 3394 2872 2941  Q 3294 2488 3294 1666  Q 3294 1616 3291 1516  L 816 1516  Q 847 969 1125 678  Q 1403 388 1819 388  Q 2128 388 2347 550  Q 2566 713 2694 1069  z M 847 1978  L 2700 1978  Q 2663 2397 2488 2606  Q 2219 2931 1791 2931  Q 1403 2931 1139 2672  Q 875 2413 847 1978  z " transform="scale(0.015625)" />
      <path id="ArialMT-3d" d="M 3381 2694  L 356 2694  L 356 3219  L 3381 3219  L 3381 2694  z M 3381 1303  L 356 1303  L 356 1828  L 3381 1828  L 3381 1303  z " transform="scale(0.015625)" />
      <path id="ArialMT-34" d="M 2069 0  L 2069 1097  L 81 1097  L 81 1613  L 2172 4581  L 2631 4581  L 2631 1613  L 3250 1613  L 3250 1097  L 2631 1097  L 2631 0  L 2069 0  z M 2069 1613  L 2069 3678  L 634 1613  L 2069 1613  z " transform="scale(0.015625)" />
      <path id="ArialMT-36" d="M 3184 3459  L 2625 3416  Q 2550 3747 2413 3897  Q 2184 4138 1850 4138  Q 1581 4138 1378 3988  Q 1113 3794 959 3422  Q 806 3050 800 2363  Q 1003 2672 1297 2822  Q 1591 2972 1913 2972  Q 2475 2972 2870 2558  Q 3266 2144 3266 1488  Q 3266 1056 3080 686  Q 2894 316 2569 119  Q 2244 -78 1831 -78  Q 1128 -78 684 439  Q 241 956 241 2144  Q 241 3472 731 4075  Q 1159 4600 1884 4600  Q 2425 4600 2770 4297  Q 3116 3994 3184 3459  z M 888 1484  Q 888 1194 1011 928  Q 1134 663 1356 523  Q 1578 384 1822 384  Q 2178 384 2434 671  Q 2691 959 2691 1453  Q 2691 1928 2437 2201  Q 2184 2475 1800 2475  Q 1419 2475 1153 2201  Q 888 1928 888 1484  z " transform="scale(0.015625)" />
      <path id="ArialMT-2e" d="M 581 0  L 581 641  L 1222 641  L 1222 0  L 581 0  z " transform="scale(0.015625)" />
      <path id="ArialMT-39" d="M 350 1059  L 891 1109  Q 959 728 1153 556  Q 1347 384 1650 384  Q 1909 384 2104 503  Q 2300 622 2425 820  Q 2550 1019 2634 1356  Q 2719 1694 2719 2044  Q 2719 2081 2716 2156  Q 2547 1888 2255 1720  Q 1963 1553 1622 1553  Q 1053 1553 659 1965  Q 266 2378 266 3053  Q 266 3750 677 4175  Q 1088 4600 1706 4600  Q 2153 4600 2523 4359  Q 2894 4119 3086 3673  Q 3278 3228 3278 2384  Q 3278 1506 3087 986  Q 2897 466 2520 194  Q 2144 -78 1638 -78  Q 1100 -78 759 220  Q 419 519 350 1059  z M 2653 3081  Q 2653 3566 2395 3850  Q 2138 4134 1775 4134  Q 1400 4134 1122 3828  Q 844 3522 844 3034  Q 844 2597 1108 2323  Q 1372 2050 1759 2050  Q 2150 2050 2401 2323  Q 2653 2597 2653 3081  z " transform="scale(0.015625)" />
     </defs>
     <use xlink:href="#ArialMT-69" />
     <use xlink:href="#ArialMT-6e" x="22.216797" />
     <use xlink:href="#ArialMT-63" x="77.832031" />
     <use xlink:href="#ArialMT-6f" x="127.832031" />
     <use xlink:href="#ArialMT-6d" x="183.447266" />
     <use xlink:href="#ArialMT-65" x="266.748047" />
     <use xlink:href="#ArialMT-3d" x="322.363281" />
     <use xlink:href="#ArialMT-34" x="380.761719" />
     <use xlink:href="#ArialMT-36" x="436.376953" />
     <use xlink:href="#ArialMT-2e" x="491.992188" />
     <use xlink:href="#ArialMT-39" x="519.775391" />
     <use xlink:href="#ArialMT-31" x="575.390625" />
    </g>
    
    <g style="fill: #444443" transform="translate(31.59375 67.887529) scale(0.12 -0.12)">
     <defs>
      <path id="ArialMT-33" d="M 269 1209  L 831 1284  Q 928 806 1161 595  Q 1394 384 1728 384  Q 2125 384 2398 659  Q 2672 934 2672 1341  Q 2672 1728 2419 1979  Q 2166 2231 1775 2231  Q 1616 2231 1378 2169  L 1441 2663  Q 1497 2656 1531 2656  Q 1891 2656 2178 2843  Q 2466 3031 2466 3422  Q 2466 3731 2256 3934  Q 2047 4138 1716 4138  Q 1388 4138 1169 3931  Q 950 3725 888 3313  L 325 3413  Q 428 3978 793 4289  Q 1159 4600 1703 4600  Q 2078 4600 2393 4439  Q 2709 4278 2876 4000  Q 3044 3722 3044 3409  Q 3044 3113 2884 2869  Q 2725 2625 2413 2481  Q 2819 2388 3044 2092  Q 3269 1797 3269 1353  Q 3269 753 2831 336  Q 2394 -81 1725 -81  Q 1122 -81 723 278  Q 325 638 269 1209  z " transform="scale(0.015625)" />
     </defs>
     <use xlink:href="#ArialMT-6e" />
     <use xlink:href="#ArialMT-3d" x="55.615234" />
     <use xlink:href="#ArialMT-33" x="114.013672" />
    </g>
   </g>
  </g>
 </g>
 <defs>
  <clipPath id="p99dc2fdfd1">
   <rect x="20.34625" y="1.367904" width="41.85" height="43.488" />
  </clipPath>
 </defs>
</svg></g>

<g id="edge2" class="edge">
<title>node1-&gt;leaf6</title>
<path fill="none" stroke="#444443" stroke-width="0.3" d="M98.89,-77.37C100.15,-73.97 101.92,-69.17 103.84,-63.95" />
<polygon fill="#444443" stroke="#444443" stroke-width="0.3" points="105.12,-64.55 105.19,-60.31 102.49,-63.58 105.12,-64.55" />
</g>

<g id="node6" class="node">
<title>leaf3</title>
<polygon fill="none" stroke="#444443" stroke-width="0" points="230,-60 162,-60 162,0 230,0 230,-60" />
<svg width="60px" height="52px" viewBox="0 0 79.629375 70.272529" version="1.1" preserveAspectRatio="xMinYMin meet" x="166" y="-56">
 <metadata>
  <rdf:RDF>
   <ns2:Work>
    <dc:type rdf:resource="http://purl.org/dc/dcmitype/StillImage" />
    <dc:date>2024-10-17T16:36:27.751746</dc:date>
    <dc:format>image/svg+xml</dc:format>
    <dc:creator>
     <ns2:Agent>
      <dc:title>Matplotlib v3.7.0, https://matplotlib.org/</dc:title>
     </ns2:Agent>
    </dc:creator>
   </ns2:Work>
  </rdf:RDF>
 </metadata>
 <defs>
  <style type="text/css">*{stroke-linejoin: round; stroke-linecap: butt}</style>
 </defs>
 <g id="figure_1">
  <g id="patch_1">
   <path d="M 0 70.272529  L 79.629375 70.272529  L 79.629375 0  L 0 0  L 0 70.272529  z " style="fill: none" />
  </g>
  <g id="axes_1">
   <g id="patch_2">
    <path d="M 20.34625 44.855904  L 62.19625 44.855904  L 62.19625 1.367904  L 20.34625 1.367904  z " style="fill: #ffffff" />
   </g>
   <g id="PathCollection_1">
    <defs>
     <path id="m7e1262a60d" d="M 0 1.118034  C 0.296506 1.118034 0.580908 1.000231 0.790569 0.790569  C 1.000231 0.580908 1.118034 0.296506 1.118034 0  C 1.118034 -0.296506 1.000231 -0.580908 0.790569 -0.790569  C 0.580908 -1.000231 0.296506 -1.118034 0 -1.118034  C -0.296506 -1.118034 -0.580908 -1.000231 -0.790569 -0.790569  C -1.000231 -0.580908 -1.118034 -0.296506 -1.118034 0  C -1.118034 0.296506 -1.000231 0.580908 -0.790569 0.790569  C -0.580908 1.000231 -0.296506 1.118034 0 1.118034  z " style="stroke: #4575b4; stroke-opacity: 0.7; stroke-width: 0.3" />
    </defs>
    <g clip-path="url(#p873caa1c47)">
     <use xlink:href="#m7e1262a60d" x="51.375024" y="13.788488" style="fill: #4575b4; fill-opacity: 0.7; stroke: #4575b4; stroke-opacity: 0.7; stroke-width: 0.3" />
     <use xlink:href="#m7e1262a60d" x="38.327233" y="19.996252" style="fill: #4575b4; fill-opacity: 0.7; stroke: #4575b4; stroke-opacity: 0.7; stroke-width: 0.3" />
     <use xlink:href="#m7e1262a60d" x="44.158685" y="24.572222" style="fill: #4575b4; fill-opacity: 0.7; stroke: #4575b4; stroke-opacity: 0.7; stroke-width: 0.3" />
     <use xlink:href="#m7e1262a60d" x="44.55958" y="18.199074" style="fill: #4575b4; fill-opacity: 0.7; stroke: #4575b4; stroke-opacity: 0.7; stroke-width: 0.3" />
     <use xlink:href="#m7e1262a60d" x="41.53532" y="17.186509" style="fill: #4575b4; fill-opacity: 0.7; stroke: #4575b4; stroke-opacity: 0.7; stroke-width: 0.3" />
     <use xlink:href="#m7e1262a60d" x="47.053887" y="15.887586" style="fill: #4575b4; fill-opacity: 0.7; stroke: #4575b4; stroke-opacity: 0.7; stroke-width: 0.3" />
    </g>
   </g>
   <g id="matplotlib.axis_1" />
   <g id="matplotlib.axis_2">
    <g id="ytick_1">
     <g id="line2d_1">
      <defs>
       <path id="m62272453a4" d="M 0 0  L -3.5 0  " style="stroke: #000000; stroke-width: 0.3" />
      </defs>
      <g>
       <use xlink:href="#m62272453a4" x="20.34625" y="28.512896" style="stroke: #000000; stroke-width: 0.3" />
      </g>
     </g>
     <g id="text_1">
      
      <g style="fill: #444443" transform="translate(4.44875 31.376021) scale(0.08 -0.08)">
       <defs>
        <path id="ArialMT-35" d="M 266 1200  L 856 1250  Q 922 819 1161 601  Q 1400 384 1738 384  Q 2144 384 2425 690  Q 2706 997 2706 1503  Q 2706 1984 2436 2262  Q 2166 2541 1728 2541  Q 1456 2541 1237 2417  Q 1019 2294 894 2097  L 366 2166  L 809 4519  L 3088 4519  L 3088 3981  L 1259 3981  L 1013 2750  Q 1425 3038 1878 3038  Q 2478 3038 2890 2622  Q 3303 2206 3303 1553  Q 3303 931 2941 478  Q 2500 -78 1738 -78  Q 1113 -78 717 272  Q 322 622 266 1200  z " transform="scale(0.015625)" />
        <path id="ArialMT-30" d="M 266 2259  Q 266 3072 433 3567  Q 600 4063 929 4331  Q 1259 4600 1759 4600  Q 2128 4600 2406 4451  Q 2684 4303 2865 4023  Q 3047 3744 3150 3342  Q 3253 2941 3253 2259  Q 3253 1453 3087 958  Q 2922 463 2592 192  Q 2263 -78 1759 -78  Q 1097 -78 719 397  Q 266 969 266 2259  z M 844 2259  Q 844 1131 1108 757  Q 1372 384 1759 384  Q 2147 384 2411 759  Q 2675 1134 2675 2259  Q 2675 3391 2411 3762  Q 2147 4134 1753 4134  Q 1366 4134 1134 3806  Q 844 3388 844 2259  z " transform="scale(0.015625)" />
       </defs>
       <use xlink:href="#ArialMT-35" />
       <use xlink:href="#ArialMT-30" x="55.615234" />
      </g>
     </g>
    </g>
    <g id="ytick_2">
     <g id="line2d_2">
      <g>
       <use xlink:href="#m62272453a4" x="20.34625" y="2.863125" style="stroke: #000000; stroke-width: 0.3" />
      </g>
     </g>
     <g id="text_2">
      
      <g style="fill: #444443" transform="translate(-0 5.72625) scale(0.08 -0.08)">
       <defs>
        <path id="ArialMT-31" d="M 2384 0  L 1822 0  L 1822 3584  Q 1619 3391 1289 3197  Q 959 3003 697 2906  L 697 3450  Q 1169 3672 1522 3987  Q 1875 4303 2022 4600  L 2384 4600  L 2384 0  z " transform="scale(0.015625)" />
       </defs>
       <use xlink:href="#ArialMT-31" />
       <use xlink:href="#ArialMT-30" x="55.615234" />
       <use xlink:href="#ArialMT-30" x="111.230469" />
      </g>
     </g>
    </g>
   </g>
   <g id="line2d_3">
    <path d="M 20.34625 18.271689  L 80.629375 18.271689  " clip-path="url(#p873caa1c47)" style="fill: none; stroke-dasharray: 3.7,1.6; stroke-dashoffset: 0; stroke: #444443" />
   </g>
   <g id="patch_3">
    <path d="M 20.34625 44.855904  L 20.34625 1.367904  " style="fill: none; stroke: #444443; stroke-width: 0.3; stroke-linejoin: miter; stroke-linecap: square" />
   </g>
   <g id="text_3">
    
    <g style="fill: #444443" transform="translate(3.913125 55.195279) scale(0.12 -0.12)">
     <defs>
      <path id="ArialMT-69" d="M 425 3934  L 425 4581  L 988 4581  L 988 3934  L 425 3934  z M 425 0  L 425 3319  L 988 3319  L 988 0  L 425 0  z " transform="scale(0.015625)" />
      <path id="ArialMT-6e" d="M 422 0  L 422 3319  L 928 3319  L 928 2847  Q 1294 3394 1984 3394  Q 2284 3394 2536 3286  Q 2788 3178 2913 3003  Q 3038 2828 3088 2588  Q 3119 2431 3119 2041  L 3119 0  L 2556 0  L 2556 2019  Q 2556 2363 2490 2533  Q 2425 2703 2258 2804  Q 2091 2906 1866 2906  Q 1506 2906 1245 2678  Q 984 2450 984 1813  L 984 0  L 422 0  z " transform="scale(0.015625)" />
      <path id="ArialMT-63" d="M 2588 1216  L 3141 1144  Q 3050 572 2676 248  Q 2303 -75 1759 -75  Q 1078 -75 664 370  Q 250 816 250 1647  Q 250 2184 428 2587  Q 606 2991 970 3192  Q 1334 3394 1763 3394  Q 2303 3394 2647 3120  Q 2991 2847 3088 2344  L 2541 2259  Q 2463 2594 2264 2762  Q 2066 2931 1784 2931  Q 1359 2931 1093 2626  Q 828 2322 828 1663  Q 828 994 1084 691  Q 1341 388 1753 388  Q 2084 388 2306 591  Q 2528 794 2588 1216  z " transform="scale(0.015625)" />
      <path id="ArialMT-6f" d="M 213 1659  Q 213 2581 725 3025  Q 1153 3394 1769 3394  Q 2453 3394 2887 2945  Q 3322 2497 3322 1706  Q 3322 1066 3130 698  Q 2938 331 2570 128  Q 2203 -75 1769 -75  Q 1072 -75 642 372  Q 213 819 213 1659  z M 791 1659  Q 791 1022 1069 705  Q 1347 388 1769 388  Q 2188 388 2466 706  Q 2744 1025 2744 1678  Q 2744 2294 2464 2611  Q 2184 2928 1769 2928  Q 1347 2928 1069 2612  Q 791 2297 791 1659  z " transform="scale(0.015625)" />
      <path id="ArialMT-6d" d="M 422 0  L 422 3319  L 925 3319  L 925 2853  Q 1081 3097 1340 3245  Q 1600 3394 1931 3394  Q 2300 3394 2536 3241  Q 2772 3088 2869 2813  Q 3263 3394 3894 3394  Q 4388 3394 4653 3120  Q 4919 2847 4919 2278  L 4919 0  L 4359 0  L 4359 2091  Q 4359 2428 4304 2576  Q 4250 2725 4106 2815  Q 3963 2906 3769 2906  Q 3419 2906 3187 2673  Q 2956 2441 2956 1928  L 2956 0  L 2394 0  L 2394 2156  Q 2394 2531 2256 2718  Q 2119 2906 1806 2906  Q 1569 2906 1367 2781  Q 1166 2656 1075 2415  Q 984 2175 984 1722  L 984 0  L 422 0  z " transform="scale(0.015625)" />
      <path id="ArialMT-65" d="M 2694 1069  L 3275 997  Q 3138 488 2766 206  Q 2394 -75 1816 -75  Q 1088 -75 661 373  Q 234 822 234 1631  Q 234 2469 665 2931  Q 1097 3394 1784 3394  Q 2450 3394 2872 2941  Q 3294 2488 3294 1666  Q 3294 1616 3291 1516  L 816 1516  Q 847 969 1125 678  Q 1403 388 1819 388  Q 2128 388 2347 550  Q 2566 713 2694 1069  z M 847 1978  L 2700 1978  Q 2663 2397 2488 2606  Q 2219 2931 1791 2931  Q 1403 2931 1139 2672  Q 875 2413 847 1978  z " transform="scale(0.015625)" />
      <path id="ArialMT-3d" d="M 3381 2694  L 356 2694  L 356 3219  L 3381 3219  L 3381 2694  z M 3381 1303  L 356 1303  L 356 1828  L 3381 1828  L 3381 1303  z " transform="scale(0.015625)" />
      <path id="ArialMT-36" d="M 3184 3459  L 2625 3416  Q 2550 3747 2413 3897  Q 2184 4138 1850 4138  Q 1581 4138 1378 3988  Q 1113 3794 959 3422  Q 806 3050 800 2363  Q 1003 2672 1297 2822  Q 1591 2972 1913 2972  Q 2475 2972 2870 2558  Q 3266 2144 3266 1488  Q 3266 1056 3080 686  Q 2894 316 2569 119  Q 2244 -78 1831 -78  Q 1128 -78 684 439  Q 241 956 241 2144  Q 241 3472 731 4075  Q 1159 4600 1884 4600  Q 2425 4600 2770 4297  Q 3116 3994 3184 3459  z M 888 1484  Q 888 1194 1011 928  Q 1134 663 1356 523  Q 1578 384 1822 384  Q 2178 384 2434 671  Q 2691 959 2691 1453  Q 2691 1928 2437 2201  Q 2184 2475 1800 2475  Q 1419 2475 1153 2201  Q 888 1928 888 1484  z " transform="scale(0.015625)" />
      <path id="ArialMT-39" d="M 350 1059  L 891 1109  Q 959 728 1153 556  Q 1347 384 1650 384  Q 1909 384 2104 503  Q 2300 622 2425 820  Q 2550 1019 2634 1356  Q 2719 1694 2719 2044  Q 2719 2081 2716 2156  Q 2547 1888 2255 1720  Q 1963 1553 1622 1553  Q 1053 1553 659 1965  Q 266 2378 266 3053  Q 266 3750 677 4175  Q 1088 4600 1706 4600  Q 2153 4600 2523 4359  Q 2894 4119 3086 3673  Q 3278 3228 3278 2384  Q 3278 1506 3087 986  Q 2897 466 2520 194  Q 2144 -78 1638 -78  Q 1100 -78 759 220  Q 419 519 350 1059  z M 2653 3081  Q 2653 3566 2395 3850  Q 2138 4134 1775 4134  Q 1400 4134 1122 3828  Q 844 3522 844 3034  Q 844 2597 1108 2323  Q 1372 2050 1759 2050  Q 2150 2050 2401 2323  Q 2653 2597 2653 3081  z " transform="scale(0.015625)" />
      <path id="ArialMT-2e" d="M 581 0  L 581 641  L 1222 641  L 1222 0  L 581 0  z " transform="scale(0.015625)" />
     </defs>
     <use xlink:href="#ArialMT-69" />
     <use xlink:href="#ArialMT-6e" x="22.216797" />
     <use xlink:href="#ArialMT-63" x="77.832031" />
     <use xlink:href="#ArialMT-6f" x="127.832031" />
     <use xlink:href="#ArialMT-6d" x="183.447266" />
     <use xlink:href="#ArialMT-65" x="266.748047" />
     <use xlink:href="#ArialMT-3d" x="322.363281" />
     <use xlink:href="#ArialMT-36" x="380.761719" />
     <use xlink:href="#ArialMT-39" x="436.376953" />
     <use xlink:href="#ArialMT-2e" x="491.992188" />
     <use xlink:href="#ArialMT-39" x="519.775391" />
     <use xlink:href="#ArialMT-36" x="575.390625" />
    </g>
    
    <g style="fill: #444443" transform="translate(31.59375 67.887529) scale(0.12 -0.12)">
     <use xlink:href="#ArialMT-6e" />
     <use xlink:href="#ArialMT-3d" x="55.615234" />
     <use xlink:href="#ArialMT-36" x="114.013672" />
    </g>
   </g>
  </g>
 </g>
 <defs>
  <clipPath id="p873caa1c47">
   <rect x="20.34625" y="1.367904" width="41.85" height="43.488" />
  </clipPath>
 </defs>
</svg></g>

<g id="edge4" class="edge">
<title>node2-&gt;leaf3</title>
<path fill="none" stroke="#444443" stroke-width="0.3" d="M204.1,-77.37C203.52,-74.03 202.7,-69.36 201.81,-64.25" />
<polygon fill="#444443" stroke="#444443" stroke-width="0.3" points="203.19,-64.03 201.13,-60.33 200.44,-64.51 203.19,-64.03" />
</g>

<g id="node7" class="node">
<title>leaf4</title>
<polygon fill="none" stroke="#444443" stroke-width="0" points="312,-60 244,-60 244,0 312,0 312,-60" />
<svg width="60px" height="52px" viewBox="0 0 79.629375 70.272529" version="1.1" preserveAspectRatio="xMinYMin meet" x="248" y="-56">
 <metadata>
  <rdf:RDF>
   <ns2:Work>
    <dc:type rdf:resource="http://purl.org/dc/dcmitype/StillImage" />
    <dc:date>2024-10-17T16:36:27.810790</dc:date>
    <dc:format>image/svg+xml</dc:format>
    <dc:creator>
     <ns2:Agent>
      <dc:title>Matplotlib v3.7.0, https://matplotlib.org/</dc:title>
     </ns2:Agent>
    </dc:creator>
   </ns2:Work>
  </rdf:RDF>
 </metadata>
 <defs>
  <style type="text/css">*{stroke-linejoin: round; stroke-linecap: butt}</style>
 </defs>
 <g id="figure_1">
  <g id="patch_1">
   <path d="M 0 70.272529  L 79.629375 70.272529  L 79.629375 0  L 0 0  L 0 70.272529  z " style="fill: none" />
  </g>
  <g id="axes_1">
   <g id="patch_2">
    <path d="M 20.34625 44.855904  L 62.19625 44.855904  L 62.19625 1.367904  L 20.34625 1.367904  z " style="fill: #ffffff" />
   </g>
   <g id="PathCollection_1">
    <defs>
     <path id="m7c274a4e69" d="M 0 1.118034  C 0.296506 1.118034 0.580908 1.000231 0.790569 0.790569  C 1.000231 0.580908 1.118034 0.296506 1.118034 0  C 1.118034 -0.296506 1.000231 -0.580908 0.790569 -0.790569  C 0.580908 -1.000231 0.296506 -1.118034 0 -1.118034  C -0.296506 -1.118034 -0.580908 -1.000231 -0.790569 -0.790569  C -1.000231 -0.580908 -1.118034 -0.296506 -1.118034 0  C -1.118034 0.296506 -1.000231 0.580908 -0.790569 0.790569  C -0.580908 1.000231 -0.296506 1.118034 0 1.118034  z " style="stroke: #4575b4; stroke-opacity: 0.7; stroke-width: 0.3" />
    </defs>
    <g clip-path="url(#p82ddf90e5c)">
     <use xlink:href="#m7c274a4e69" x="38.674442" y="2.905615" style="fill: #4575b4; fill-opacity: 0.7; stroke: #4575b4; stroke-opacity: 0.7; stroke-width: 0.3" />
     <use xlink:href="#m7c274a4e69" x="36.806957" y="6.669995" style="fill: #4575b4; fill-opacity: 0.7; stroke: #4575b4; stroke-opacity: 0.7; stroke-width: 0.3" />
     <use xlink:href="#m7c274a4e69" x="40.503747" y="19.273889" style="fill: #4575b4; fill-opacity: 0.7; stroke: #4575b4; stroke-opacity: 0.7; stroke-width: 0.3" />
     <use xlink:href="#m7c274a4e69" x="38.292467" y="17.481193" style="fill: #4575b4; fill-opacity: 0.7; stroke: #4575b4; stroke-opacity: 0.7; stroke-width: 0.3" />
     <use xlink:href="#m7c274a4e69" x="38.331188" y="9.03422" style="fill: #4575b4; fill-opacity: 0.7; stroke: #4575b4; stroke-opacity: 0.7; stroke-width: 0.3" />
     <use xlink:href="#m7c274a4e69" x="44.346113" y="13.219974" style="fill: #4575b4; fill-opacity: 0.7; stroke: #4575b4; stroke-opacity: 0.7; stroke-width: 0.3" />
     <use xlink:href="#m7c274a4e69" x="41.828656" y="7.989833" style="fill: #4575b4; fill-opacity: 0.7; stroke: #4575b4; stroke-opacity: 0.7; stroke-width: 0.3" />
     <use xlink:href="#m7c274a4e69" x="46.834024" y="4.769931" style="fill: #4575b4; fill-opacity: 0.7; stroke: #4575b4; stroke-opacity: 0.7; stroke-width: 0.3" />
     <use xlink:href="#m7c274a4e69" x="40.840864" y="8.505715" style="fill: #4575b4; fill-opacity: 0.7; stroke: #4575b4; stroke-opacity: 0.7; stroke-width: 0.3" />
     <use xlink:href="#m7c274a4e69" x="43.174242" y="3.461272" style="fill: #4575b4; fill-opacity: 0.7; stroke: #4575b4; stroke-opacity: 0.7; stroke-width: 0.3" />
     <use xlink:href="#m7c274a4e69" x="44.427033" y="15.839498" style="fill: #4575b4; fill-opacity: 0.7; stroke: #4575b4; stroke-opacity: 0.7; stroke-width: 0.3" />
     <use xlink:href="#m7c274a4e69" x="39.471945" y="13.735661" style="fill: #4575b4; fill-opacity: 0.7; stroke: #4575b4; stroke-opacity: 0.7; stroke-width: 0.3" />
     <use xlink:href="#m7c274a4e69" x="44.63999" y="7.575483" style="fill: #4575b4; fill-opacity: 0.7; stroke: #4575b4; stroke-opacity: 0.7; stroke-width: 0.3" />
    </g>
   </g>
   <g id="matplotlib.axis_1" />
   <g id="matplotlib.axis_2">
    <g id="ytick_1">
     <g id="line2d_1">
      <defs>
       <path id="m17d318b8c3" d="M 0 0  L -3.5 0  " style="stroke: #000000; stroke-width: 0.3" />
      </defs>
      <g>
       <use xlink:href="#m17d318b8c3" x="20.34625" y="28.512896" style="stroke: #000000; stroke-width: 0.3" />
      </g>
     </g>
     <g id="text_1">
      
      <g style="fill: #444443" transform="translate(4.44875 31.376021) scale(0.08 -0.08)">
       <defs>
        <path id="ArialMT-35" d="M 266 1200  L 856 1250  Q 922 819 1161 601  Q 1400 384 1738 384  Q 2144 384 2425 690  Q 2706 997 2706 1503  Q 2706 1984 2436 2262  Q 2166 2541 1728 2541  Q 1456 2541 1237 2417  Q 1019 2294 894 2097  L 366 2166  L 809 4519  L 3088 4519  L 3088 3981  L 1259 3981  L 1013 2750  Q 1425 3038 1878 3038  Q 2478 3038 2890 2622  Q 3303 2206 3303 1553  Q 3303 931 2941 478  Q 2500 -78 1738 -78  Q 1113 -78 717 272  Q 322 622 266 1200  z " transform="scale(0.015625)" />
        <path id="ArialMT-30" d="M 266 2259  Q 266 3072 433 3567  Q 600 4063 929 4331  Q 1259 4600 1759 4600  Q 2128 4600 2406 4451  Q 2684 4303 2865 4023  Q 3047 3744 3150 3342  Q 3253 2941 3253 2259  Q 3253 1453 3087 958  Q 2922 463 2592 192  Q 2263 -78 1759 -78  Q 1097 -78 719 397  Q 266 969 266 2259  z M 844 2259  Q 844 1131 1108 757  Q 1372 384 1759 384  Q 2147 384 2411 759  Q 2675 1134 2675 2259  Q 2675 3391 2411 3762  Q 2147 4134 1753 4134  Q 1366 4134 1134 3806  Q 844 3388 844 2259  z " transform="scale(0.015625)" />
       </defs>
       <use xlink:href="#ArialMT-35" />
       <use xlink:href="#ArialMT-30" x="55.615234" />
      </g>
     </g>
    </g>
    <g id="ytick_2">
     <g id="line2d_2">
      <g>
       <use xlink:href="#m17d318b8c3" x="20.34625" y="2.863125" style="stroke: #000000; stroke-width: 0.3" />
      </g>
     </g>
     <g id="text_2">
      
      <g style="fill: #444443" transform="translate(-0 5.72625) scale(0.08 -0.08)">
       <defs>
        <path id="ArialMT-31" d="M 2384 0  L 1822 0  L 1822 3584  Q 1619 3391 1289 3197  Q 959 3003 697 2906  L 697 3450  Q 1169 3672 1522 3987  Q 1875 4303 2022 4600  L 2384 4600  L 2384 0  z " transform="scale(0.015625)" />
       </defs>
       <use xlink:href="#ArialMT-31" />
       <use xlink:href="#ArialMT-30" x="55.615234" />
       <use xlink:href="#ArialMT-30" x="111.230469" />
      </g>
     </g>
    </g>
   </g>
   <g id="line2d_3">
    <path d="M 20.34625 10.03556  L 80.629375 10.03556  " clip-path="url(#p82ddf90e5c)" style="fill: none; stroke-dasharray: 3.7,1.6; stroke-dashoffset: 0; stroke: #444443" />
   </g>
   <g id="patch_3">
    <path d="M 20.34625 44.855904  L 20.34625 1.367904  " style="fill: none; stroke: #444443; stroke-width: 0.3; stroke-linejoin: miter; stroke-linecap: square" />
   </g>
   <g id="text_3">
    
    <g style="fill: #444443" transform="translate(3.913125 55.195279) scale(0.12 -0.12)">
     <defs>
      <path id="ArialMT-69" d="M 425 3934  L 425 4581  L 988 4581  L 988 3934  L 425 3934  z M 425 0  L 425 3319  L 988 3319  L 988 0  L 425 0  z " transform="scale(0.015625)" />
      <path id="ArialMT-6e" d="M 422 0  L 422 3319  L 928 3319  L 928 2847  Q 1294 3394 1984 3394  Q 2284 3394 2536 3286  Q 2788 3178 2913 3003  Q 3038 2828 3088 2588  Q 3119 2431 3119 2041  L 3119 0  L 2556 0  L 2556 2019  Q 2556 2363 2490 2533  Q 2425 2703 2258 2804  Q 2091 2906 1866 2906  Q 1506 2906 1245 2678  Q 984 2450 984 1813  L 984 0  L 422 0  z " transform="scale(0.015625)" />
      <path id="ArialMT-63" d="M 2588 1216  L 3141 1144  Q 3050 572 2676 248  Q 2303 -75 1759 -75  Q 1078 -75 664 370  Q 250 816 250 1647  Q 250 2184 428 2587  Q 606 2991 970 3192  Q 1334 3394 1763 3394  Q 2303 3394 2647 3120  Q 2991 2847 3088 2344  L 2541 2259  Q 2463 2594 2264 2762  Q 2066 2931 1784 2931  Q 1359 2931 1093 2626  Q 828 2322 828 1663  Q 828 994 1084 691  Q 1341 388 1753 388  Q 2084 388 2306 591  Q 2528 794 2588 1216  z " transform="scale(0.015625)" />
      <path id="ArialMT-6f" d="M 213 1659  Q 213 2581 725 3025  Q 1153 3394 1769 3394  Q 2453 3394 2887 2945  Q 3322 2497 3322 1706  Q 3322 1066 3130 698  Q 2938 331 2570 128  Q 2203 -75 1769 -75  Q 1072 -75 642 372  Q 213 819 213 1659  z M 791 1659  Q 791 1022 1069 705  Q 1347 388 1769 388  Q 2188 388 2466 706  Q 2744 1025 2744 1678  Q 2744 2294 2464 2611  Q 2184 2928 1769 2928  Q 1347 2928 1069 2612  Q 791 2297 791 1659  z " transform="scale(0.015625)" />
      <path id="ArialMT-6d" d="M 422 0  L 422 3319  L 925 3319  L 925 2853  Q 1081 3097 1340 3245  Q 1600 3394 1931 3394  Q 2300 3394 2536 3241  Q 2772 3088 2869 2813  Q 3263 3394 3894 3394  Q 4388 3394 4653 3120  Q 4919 2847 4919 2278  L 4919 0  L 4359 0  L 4359 2091  Q 4359 2428 4304 2576  Q 4250 2725 4106 2815  Q 3963 2906 3769 2906  Q 3419 2906 3187 2673  Q 2956 2441 2956 1928  L 2956 0  L 2394 0  L 2394 2156  Q 2394 2531 2256 2718  Q 2119 2906 1806 2906  Q 1569 2906 1367 2781  Q 1166 2656 1075 2415  Q 984 2175 984 1722  L 984 0  L 422 0  z " transform="scale(0.015625)" />
      <path id="ArialMT-65" d="M 2694 1069  L 3275 997  Q 3138 488 2766 206  Q 2394 -75 1816 -75  Q 1088 -75 661 373  Q 234 822 234 1631  Q 234 2469 665 2931  Q 1097 3394 1784 3394  Q 2450 3394 2872 2941  Q 3294 2488 3294 1666  Q 3294 1616 3291 1516  L 816 1516  Q 847 969 1125 678  Q 1403 388 1819 388  Q 2128 388 2347 550  Q 2566 713 2694 1069  z M 847 1978  L 2700 1978  Q 2663 2397 2488 2606  Q 2219 2931 1791 2931  Q 1403 2931 1139 2672  Q 875 2413 847 1978  z " transform="scale(0.015625)" />
      <path id="ArialMT-3d" d="M 3381 2694  L 356 2694  L 356 3219  L 3381 3219  L 3381 2694  z M 3381 1303  L 356 1303  L 356 1828  L 3381 1828  L 3381 1303  z " transform="scale(0.015625)" />
      <path id="ArialMT-38" d="M 1131 2484  Q 781 2613 612 2850  Q 444 3088 444 3419  Q 444 3919 803 4259  Q 1163 4600 1759 4600  Q 2359 4600 2725 4251  Q 3091 3903 3091 3403  Q 3091 3084 2923 2848  Q 2756 2613 2416 2484  Q 2838 2347 3058 2040  Q 3278 1734 3278 1309  Q 3278 722 2862 322  Q 2447 -78 1769 -78  Q 1091 -78 675 323  Q 259 725 259 1325  Q 259 1772 486 2073  Q 713 2375 1131 2484  z M 1019 3438  Q 1019 3113 1228 2906  Q 1438 2700 1772 2700  Q 2097 2700 2305 2904  Q 2513 3109 2513 3406  Q 2513 3716 2298 3927  Q 2084 4138 1766 4138  Q 1444 4138 1231 3931  Q 1019 3725 1019 3438  z M 838 1322  Q 838 1081 952 856  Q 1066 631 1291 507  Q 1516 384 1775 384  Q 2178 384 2440 643  Q 2703 903 2703 1303  Q 2703 1709 2433 1975  Q 2163 2241 1756 2241  Q 1359 2241 1098 1978  Q 838 1716 838 1322  z " transform="scale(0.015625)" />
      <path id="ArialMT-36" d="M 3184 3459  L 2625 3416  Q 2550 3747 2413 3897  Q 2184 4138 1850 4138  Q 1581 4138 1378 3988  Q 1113 3794 959 3422  Q 806 3050 800 2363  Q 1003 2672 1297 2822  Q 1591 2972 1913 2972  Q 2475 2972 2870 2558  Q 3266 2144 3266 1488  Q 3266 1056 3080 686  Q 2894 316 2569 119  Q 2244 -78 1831 -78  Q 1128 -78 684 439  Q 241 956 241 2144  Q 241 3472 731 4075  Q 1159 4600 1884 4600  Q 2425 4600 2770 4297  Q 3116 3994 3184 3459  z M 888 1484  Q 888 1194 1011 928  Q 1134 663 1356 523  Q 1578 384 1822 384  Q 2178 384 2434 671  Q 2691 959 2691 1453  Q 2691 1928 2437 2201  Q 2184 2475 1800 2475  Q 1419 2475 1153 2201  Q 888 1928 888 1484  z " transform="scale(0.015625)" />
      <path id="ArialMT-2e" d="M 581 0  L 581 641  L 1222 641  L 1222 0  L 581 0  z " transform="scale(0.015625)" />
      <path id="ArialMT-32" d="M 3222 541  L 3222 0  L 194 0  Q 188 203 259 391  Q 375 700 629 1000  Q 884 1300 1366 1694  Q 2113 2306 2375 2664  Q 2638 3022 2638 3341  Q 2638 3675 2398 3904  Q 2159 4134 1775 4134  Q 1369 4134 1125 3890  Q 881 3647 878 3216  L 300 3275  Q 359 3922 746 4261  Q 1134 4600 1788 4600  Q 2447 4600 2831 4234  Q 3216 3869 3216 3328  Q 3216 3053 3103 2787  Q 2991 2522 2730 2228  Q 2469 1934 1863 1422  Q 1356 997 1212 845  Q 1069 694 975 541  L 3222 541  z " transform="scale(0.015625)" />
     </defs>
     <use xlink:href="#ArialMT-69" />
     <use xlink:href="#ArialMT-6e" x="22.216797" />
     <use xlink:href="#ArialMT-63" x="77.832031" />
     <use xlink:href="#ArialMT-6f" x="127.832031" />
     <use xlink:href="#ArialMT-6d" x="183.447266" />
     <use xlink:href="#ArialMT-65" x="266.748047" />
     <use xlink:href="#ArialMT-3d" x="322.363281" />
     <use xlink:href="#ArialMT-38" x="380.761719" />
     <use xlink:href="#ArialMT-36" x="436.376953" />
     <use xlink:href="#ArialMT-2e" x="491.992188" />
     <use xlink:href="#ArialMT-30" x="519.775391" />
     <use xlink:href="#ArialMT-32" x="575.390625" />
    </g>
    
    <g style="fill: #444443" transform="translate(28.257187 67.887529) scale(0.12 -0.12)">
     <defs>
      <path id="ArialMT-33" d="M 269 1209  L 831 1284  Q 928 806 1161 595  Q 1394 384 1728 384  Q 2125 384 2398 659  Q 2672 934 2672 1341  Q 2672 1728 2419 1979  Q 2166 2231 1775 2231  Q 1616 2231 1378 2169  L 1441 2663  Q 1497 2656 1531 2656  Q 1891 2656 2178 2843  Q 2466 3031 2466 3422  Q 2466 3731 2256 3934  Q 2047 4138 1716 4138  Q 1388 4138 1169 3931  Q 950 3725 888 3313  L 325 3413  Q 428 3978 793 4289  Q 1159 4600 1703 4600  Q 2078 4600 2393 4439  Q 2709 4278 2876 4000  Q 3044 3722 3044 3409  Q 3044 3113 2884 2869  Q 2725 2625 2413 2481  Q 2819 2388 3044 2092  Q 3269 1797 3269 1353  Q 3269 753 2831 336  Q 2394 -81 1725 -81  Q 1122 -81 723 278  Q 325 638 269 1209  z " transform="scale(0.015625)" />
     </defs>
     <use xlink:href="#ArialMT-6e" />
     <use xlink:href="#ArialMT-3d" x="55.615234" />
     <use xlink:href="#ArialMT-31" x="114.013672" />
     <use xlink:href="#ArialMT-33" x="169.628906" />
    </g>
   </g>
  </g>
 </g>
 <defs>
  <clipPath id="p82ddf90e5c">
   <rect x="20.34625" y="1.367904" width="41.85" height="43.488" />
  </clipPath>
 </defs>
</svg></g>

<g id="edge5" class="edge">
<title>node2-&gt;leaf4</title>
<path fill="none" stroke="#444443" stroke-width="0.3" d="M212.54,-77.18C219.34,-72.38 229.9,-64.93 240.57,-57.41" />
<polygon fill="#444443" stroke="#444443" stroke-width="0.3" points="241.35,-58.57 243.81,-55.12 239.74,-56.28 241.35,-58.57" />
</g>

<g id="node3" class="node">
<title>node0</title>
<text text-anchor="start" x="103.5" y="-124.4" font-family="Arial" font-size="12.00" fill="#444443">education@15.59</text>
</g>

<g id="edge7" class="edge">
<title>node0-&gt;node1</title>
<path fill="none" stroke="#444443" stroke-width="0.3" d="M143.94,-121.01C134.59,-113.74 118.03,-100.86 107.29,-92.5" />
<polygon fill="#444443" stroke="#444443" stroke-width="0.3" points="108.27,-91.49 104.25,-90.14 106.55,-93.7 108.27,-91.49" />
<text text-anchor="start" x="134" y="-101.8" font-family="Arial" font-size="14.00" fill="#444443"> &#160;&#8804;</text>
</g>

<g id="edge8" class="edge">
<title>node0-&gt;node2</title>
<path fill="none" stroke="#444443" stroke-width="0.3" d="M158.06,-121.01C167.41,-113.74 183.97,-100.86 194.71,-92.5" />
<polygon fill="#444443" stroke="#444443" stroke-width="0.3" points="195.45,-93.7 197.75,-90.14 193.73,-91.49 195.45,-93.7" />
<text text-anchor="start" x="188" y="-101.8" font-family="Arial" font-size="14.00" fill="#444443"> &#160;&gt;</text>
</g>


</g>
</svg>